<mxfile host="app.diagrams.net" modified="2023-09-30T17:32:41.108Z" agent="Mozilla/5.0 (Windows NT 10.0; Win64; x64) AppleWebKit/537.36 (KHTML, like Gecko) Chrome/117.0.0.0 Safari/537.36" etag="GGeOIZ5ePsXzvjKl2AgV" version="22.0.0" type="device">
  <diagram id="C5RBs43oDa-KdzZeNtuy" name="Page-1">
    <mxGraphModel dx="1434" dy="782" grid="1" gridSize="10" guides="1" tooltips="1" connect="1" arrows="1" fold="1" page="1" pageScale="1" pageWidth="827" pageHeight="1169" math="0" shadow="0">
      <root>
        <mxCell id="WIyWlLk6GJQsqaUBKTNV-0" />
        <mxCell id="WIyWlLk6GJQsqaUBKTNV-1" parent="WIyWlLk6GJQsqaUBKTNV-0" />
        <mxCell id="l7bhhkym5OHxbOKyj2FV-0" value="Notes:&lt;br&gt;consider doctor/personal trainer profiles&lt;br&gt;consider other nutrients&lt;br&gt;consider BMI&lt;br&gt;daily logs&lt;br&gt;macro/calorie dependency via user interface&lt;br&gt;consider height interface&lt;br&gt;consider password and username restrictions" style="rounded=0;whiteSpace=wrap;html=1;" parent="WIyWlLk6GJQsqaUBKTNV-1" vertex="1">
          <mxGeometry x="740" y="30" width="370" height="190" as="geometry" />
        </mxCell>
        <mxCell id="l7bhhkym5OHxbOKyj2FV-20" value="" style="group" parent="WIyWlLk6GJQsqaUBKTNV-1" vertex="1" connectable="0">
          <mxGeometry x="360" y="50" width="240" height="210" as="geometry" />
        </mxCell>
        <mxCell id="l7bhhkym5OHxbOKyj2FV-1" value="Profiles" style="swimlane;fontStyle=0;childLayout=stackLayout;horizontal=1;startSize=30;horizontalStack=0;resizeParent=1;resizeParentMax=0;resizeLast=0;collapsible=1;marginBottom=0;whiteSpace=wrap;html=1;" parent="l7bhhkym5OHxbOKyj2FV-20" vertex="1">
          <mxGeometry width="240" height="150.00272727272727" as="geometry" />
        </mxCell>
        <mxCell id="l7bhhkym5OHxbOKyj2FV-2" value="String Username" style="text;strokeColor=none;fillColor=none;align=left;verticalAlign=middle;spacingLeft=4;spacingRight=4;overflow=hidden;points=[[0,0.5],[1,0.5]];portConstraint=eastwest;rotatable=0;whiteSpace=wrap;html=1;" parent="l7bhhkym5OHxbOKyj2FV-1" vertex="1">
          <mxGeometry y="30" width="240" height="28.636363636363637" as="geometry" />
        </mxCell>
        <mxCell id="l7bhhkym5OHxbOKyj2FV-3" value="String Password" style="text;strokeColor=none;fillColor=none;align=left;verticalAlign=middle;spacingLeft=4;spacingRight=4;overflow=hidden;points=[[0,0.5],[1,0.5]];portConstraint=eastwest;rotatable=0;whiteSpace=wrap;html=1;" parent="l7bhhkym5OHxbOKyj2FV-1" vertex="1">
          <mxGeometry y="58.63636363636364" width="240" height="28.636363636363637" as="geometry" />
        </mxCell>
        <mxCell id="l7bhhkym5OHxbOKyj2FV-4" value="String full_name&lt;br&gt;double weight" style="text;strokeColor=none;fillColor=none;align=left;verticalAlign=middle;spacingLeft=4;spacingRight=4;overflow=hidden;points=[[0,0.5],[1,0.5]];portConstraint=eastwest;rotatable=0;whiteSpace=wrap;html=1;" parent="l7bhhkym5OHxbOKyj2FV-1" vertex="1">
          <mxGeometry y="87.27272727272728" width="240" height="62.73" as="geometry" />
        </mxCell>
        <mxCell id="l7bhhkym5OHxbOKyj2FV-18" value="" style="swimlane;startSize=0;" parent="l7bhhkym5OHxbOKyj2FV-20" vertex="1">
          <mxGeometry y="150" width="240" height="60" as="geometry" />
        </mxCell>
        <mxCell id="l7bhhkym5OHxbOKyj2FV-19" value="Getters and Setters&lt;br&gt;Constructors" style="text;html=1;align=center;verticalAlign=middle;resizable=0;points=[];autosize=1;strokeColor=none;fillColor=none;" parent="l7bhhkym5OHxbOKyj2FV-18" vertex="1">
          <mxGeometry x="10" y="10.000909090909094" width="130" height="40" as="geometry" />
        </mxCell>
        <mxCell id="l7bhhkym5OHxbOKyj2FV-21" value="" style="group" parent="WIyWlLk6GJQsqaUBKTNV-1" vertex="1" connectable="0">
          <mxGeometry x="250" y="320" width="270" height="390" as="geometry" />
        </mxCell>
        <mxCell id="l7bhhkym5OHxbOKyj2FV-22" value="Food Log" style="swimlane;fontStyle=0;childLayout=stackLayout;horizontal=1;startSize=30;horizontalStack=0;resizeParent=1;resizeParentMax=0;resizeLast=0;collapsible=1;marginBottom=0;whiteSpace=wrap;html=1;" parent="l7bhhkym5OHxbOKyj2FV-21" vertex="1">
          <mxGeometry width="270" height="120" as="geometry" />
        </mxCell>
        <mxCell id="l7bhhkym5OHxbOKyj2FV-23" value="int calorie_intake&amp;nbsp;&lt;br&gt;int calorie_goals&lt;br&gt;int protein_goals&lt;br&gt;int carbs_goals&lt;br&gt;int fats_goals" style="text;strokeColor=none;fillColor=none;align=left;verticalAlign=middle;spacingLeft=4;spacingRight=4;overflow=hidden;points=[[0,0.5],[1,0.5]];portConstraint=eastwest;rotatable=0;whiteSpace=wrap;html=1;" parent="l7bhhkym5OHxbOKyj2FV-22" vertex="1">
          <mxGeometry y="30" width="270" height="90" as="geometry" />
        </mxCell>
        <mxCell id="l7bhhkym5OHxbOKyj2FV-28" value="Getters and Setters&lt;br&gt;Constructors&lt;br&gt;Int CalorieCalculator (int protein_goals, int carbs_goals, fats_goals)" style="text;strokeColor=none;fillColor=none;align=left;verticalAlign=middle;spacingLeft=4;spacingRight=4;overflow=hidden;points=[[0,0.5],[1,0.5]];portConstraint=eastwest;rotatable=0;whiteSpace=wrap;html=1;" parent="l7bhhkym5OHxbOKyj2FV-21" vertex="1">
          <mxGeometry y="120" width="270" height="90" as="geometry" />
        </mxCell>
        <mxCell id="l7bhhkym5OHxbOKyj2FV-30" value="" style="swimlane;startSize=0;" parent="l7bhhkym5OHxbOKyj2FV-21" vertex="1">
          <mxGeometry y="120" width="270" height="90" as="geometry" />
        </mxCell>
        <mxCell id="l7bhhkym5OHxbOKyj2FV-33" value="Activity Log" style="swimlane;fontStyle=0;childLayout=stackLayout;horizontal=1;startSize=30;horizontalStack=0;resizeParent=1;resizeParentMax=0;resizeLast=0;collapsible=1;marginBottom=0;whiteSpace=wrap;html=1;" parent="WIyWlLk6GJQsqaUBKTNV-1" vertex="1">
          <mxGeometry x="590" y="320" width="270" height="120" as="geometry" />
        </mxCell>
        <mxCell id="l7bhhkym5OHxbOKyj2FV-34" value="int calories_burned&lt;br&gt;int rating // on a scale of 1 to 5&lt;br&gt;int intensity // on a scale of 1 to 5&lt;br&gt;String note // workout note for&amp;nbsp;" style="text;strokeColor=none;fillColor=none;align=left;verticalAlign=middle;spacingLeft=4;spacingRight=4;overflow=hidden;points=[[0,0.5],[1,0.5]];portConstraint=eastwest;rotatable=0;whiteSpace=wrap;html=1;" parent="l7bhhkym5OHxbOKyj2FV-33" vertex="1">
          <mxGeometry y="30" width="270" height="90" as="geometry" />
        </mxCell>
        <mxCell id="l7bhhkym5OHxbOKyj2FV-35" value="Getters and Setters&lt;br&gt;Constructors" style="text;strokeColor=none;fillColor=none;align=left;verticalAlign=middle;spacingLeft=4;spacingRight=4;overflow=hidden;points=[[0,0.5],[1,0.5]];portConstraint=eastwest;rotatable=0;whiteSpace=wrap;html=1;" parent="WIyWlLk6GJQsqaUBKTNV-1" vertex="1">
          <mxGeometry x="590" y="440" width="270" height="90" as="geometry" />
        </mxCell>
        <mxCell id="l7bhhkym5OHxbOKyj2FV-36" value="" style="swimlane;startSize=0;" parent="WIyWlLk6GJQsqaUBKTNV-1" vertex="1">
          <mxGeometry x="590" y="440" width="270" height="90" as="geometry" />
        </mxCell>
        <mxCell id="l7bhhkym5OHxbOKyj2FV-37" style="edgeStyle=orthogonalEdgeStyle;rounded=0;orthogonalLoop=1;jettySize=auto;html=1;entryX=0.179;entryY=0.98;entryDx=0;entryDy=0;entryPerimeter=0;" parent="WIyWlLk6GJQsqaUBKTNV-1" source="l7bhhkym5OHxbOKyj2FV-22" target="l7bhhkym5OHxbOKyj2FV-18" edge="1">
          <mxGeometry relative="1" as="geometry" />
        </mxCell>
        <mxCell id="l7bhhkym5OHxbOKyj2FV-38" style="edgeStyle=orthogonalEdgeStyle;rounded=0;orthogonalLoop=1;jettySize=auto;html=1;entryX=0.6;entryY=1;entryDx=0;entryDy=0;entryPerimeter=0;" parent="WIyWlLk6GJQsqaUBKTNV-1" source="l7bhhkym5OHxbOKyj2FV-33" target="l7bhhkym5OHxbOKyj2FV-18" edge="1">
          <mxGeometry relative="1" as="geometry" />
        </mxCell>
      </root>
    </mxGraphModel>
  </diagram>
</mxfile>
